HIERARCHY
ROOT Hips
{
	OFFSET 0 0 0
	CHANNELS 6 Xposition Yposition Zposition Zrotation Xrotation Yrotation 
	JOINT RightUpLeg
	{
		OFFSET -3.17 -2.64 -0.26
		CHANNELS 3 Zrotation Xrotation Yrotation 
		JOINT RightLeg
		{
			OFFSET -0.36 -13.7 -0.45
			CHANNELS 3 Zrotation Xrotation Yrotation 
			End Site
			{
				OFFSET 0.13 -14.01 -0.08
			}
		}
	}
	JOINT LeftUpLeg
	{
		OFFSET 3.17 -2.64 -0.26
		CHANNELS 3 Zrotation Xrotation Yrotation 
		JOINT LeftLeg
		{
			OFFSET 0.36 -13.7 -0.45
			CHANNELS 3 Zrotation Xrotation Yrotation 
			End Site
			{
				OFFSET -0.13 -14.01 -0.08
			}
		}
	}
	JOINT Spine
	{
		OFFSET 0 2.88 0
		CHANNELS 3 Zrotation Xrotation Yrotation 
		JOINT Spine1
		{
			OFFSET 0 3.38 0
			CHANNELS 3 Zrotation Xrotation Yrotation 
			JOINT Spine2
			{
				OFFSET 0 3.61 0
				CHANNELS 3 Zrotation Xrotation Yrotation 
				JOINT Spine3
				{
					OFFSET 0 3.52 0.37
					CHANNELS 3 Zrotation Xrotation Yrotation 
					JOINT Neck
					{
						OFFSET 0 3.62 -0.37
						CHANNELS 3 Zrotation Xrotation Yrotation 
						End Site
						{
							OFFSET 0 3 0
						}
					}
					JOINT RightShoulder
					{
						OFFSET -1.47 1.22 -0.37
						CHANNELS 3 Zrotation Xrotation Yrotation 
						JOINT RightArm
						{
							OFFSET -4.69 0 0
							CHANNELS 3 Zrotation Xrotation Yrotation 
							JOINT RightForeArm
							{
								OFFSET -7.76 0 0
								CHANNELS 3 Zrotation Xrotation Yrotation 
								JOINT RightHand
								{
									OFFSET -8.52 0 0
									CHANNELS 3 Zrotation Xrotation Yrotation 
									JOINT RightHandThumb1
									{
										OFFSET -1.01 0.08 1.27
										CHANNELS 3 Zrotation Xrotation Yrotation 
										JOINT RightHandThumb2
										{
											OFFSET -1.5 0 -0.01
											CHANNELS 3 Zrotation Xrotation Yrotation 
											End Site
											{
												OFFSET -1.04 0 -0.01
											}
										}
									}
									JOINT RightInHandIndex
									{
										OFFSET -1.31 0.21 0.81
										CHANNELS 3 Zrotation Xrotation Yrotation 
										JOINT RightHandIndex1
										{
											OFFSET -2.13 -0.04 0.41
											CHANNELS 3 Zrotation Xrotation Yrotation 
											JOINT RightHandIndex2
											{
												OFFSET -1.47 -0.07 0
												CHANNELS 3 Zrotation Xrotation Yrotation 
												End Site
												{
													OFFSET -0.83 -0.05 0
												}
											}
										}
									}
									JOINT RightInHandMiddle
									{
										OFFSET -1.38 0.21 0.31
										CHANNELS 3 Zrotation Xrotation Yrotation 
										JOINT RightHandMiddle1
										{
											OFFSET -2.11 -0.03 0.13
											CHANNELS 3 Zrotation Xrotation Yrotation 
											JOINT RightHandMiddle2
											{
												OFFSET -1.6 -0.11 0
												CHANNELS 3 Zrotation Xrotation Yrotation 
												End Site
												{
													OFFSET -1 -0.08 0
												}
											}
										}
									}
									JOINT RightInHandRing
									{
										OFFSET -1.37 0.22 -0.05
										CHANNELS 3 Zrotation Xrotation Yrotation 
										JOINT RightHandRing1
										{
											OFFSET -1.89 -0.01 -0.2
											CHANNELS 3 Zrotation Xrotation Yrotation 
											JOINT RightHandRing2
											{
												OFFSET -1.4 -0.13 0
												CHANNELS 3 Zrotation Xrotation Yrotation 
												End Site
												{
													OFFSET -0.97 -0.08 0
												}
											}
										}
									}
									JOINT RightInHandPinky
									{
										OFFSET -1.29 0.19 -0.49
										CHANNELS 3 Zrotation Xrotation Yrotation 
										JOINT RightHandPinky1
										{
											OFFSET -1.69 -0.01 -0.44
											CHANNELS 3 Zrotation Xrotation Yrotation 
											JOINT RightHandPinky2
											{
												OFFSET -1.12 -0.06 -0.01
												CHANNELS 3 Zrotation Xrotation Yrotation 
												End Site
												{
													OFFSET -0.71 -0.05 0
												}
											}
										}
									}
								}
							}
						}
					}
					JOINT LeftShoulder
					{
						OFFSET 1.47 1.22 -0.37
						CHANNELS 3 Zrotation Xrotation Yrotation 
						JOINT LeftArm
						{
							OFFSET 4.69 0 0
							CHANNELS 3 Zrotation Xrotation Yrotation 
							JOINT LeftForeArm
							{
								OFFSET 7.76 0 0
								CHANNELS 3 Zrotation Xrotation Yrotation 
								JOINT LeftHand
								{
									OFFSET 8.52 0 0
									CHANNELS 3 Zrotation Xrotation Yrotation 
									JOINT LeftHandThumb1
									{
										OFFSET 1.01 0.08 1.27
										CHANNELS 3 Zrotation Xrotation Yrotation 
										JOINT LeftHandThumb2
										{
											OFFSET 1.5 0 0
											CHANNELS 3 Zrotation Xrotation Yrotation 
											End Site
											{
												OFFSET 1.04 0 0
											}
										}
									}
									JOINT LeftInHandIndex
									{
										OFFSET 1.31 0.21 0.81
										CHANNELS 3 Zrotation Xrotation Yrotation 
										JOINT LeftHandIndex1
										{
											OFFSET 2.13 -0.04 0.41
											CHANNELS 3 Zrotation Xrotation Yrotation 
											JOINT LeftHandIndex2
											{
												OFFSET 1.47 -0.07 0
												CHANNELS 3 Zrotation Xrotation Yrotation 
												End Site
												{
													OFFSET 0.83 -0.05 0
												}
											}
										}
									}
									JOINT LeftInHandMiddle
									{
										OFFSET 1.38 0.21 0.31
										CHANNELS 3 Zrotation Xrotation Yrotation 
										JOINT LeftHandMiddle1
										{
											OFFSET 2.11 -0.03 0.13
											CHANNELS 3 Zrotation Xrotation Yrotation 
											JOINT LeftHandMiddle2
											{
												OFFSET 1.6 -0.11 0
												CHANNELS 3 Zrotation Xrotation Yrotation 
												End Site
												{
													OFFSET 1 -0.08 0
												}
											}
										}
									}
									JOINT LeftInHandRing
									{
										OFFSET 1.37 0.22 -0.05
										CHANNELS 3 Zrotation Xrotation Yrotation 
										JOINT LeftHandRing1
										{
											OFFSET 1.89 -0.01 -0.2
											CHANNELS 3 Zrotation Xrotation Yrotation 
											JOINT LeftHandRing2
											{
												OFFSET 1.4 -0.11 0
												CHANNELS 3 Zrotation Xrotation Yrotation 
												End Site
												{
													OFFSET 0.97 -0.07 0
												}
											}
										}
									}
									JOINT LeftInHandPinky
									{
										OFFSET 1.29 0.19 -0.49
										CHANNELS 3 Zrotation Xrotation Yrotation 
										JOINT LeftHandPinky1
										{
											OFFSET 1.69 -0.01 -0.44
											CHANNELS 3 Zrotation Xrotation Yrotation 
											JOINT LeftHandPinky2
											{
												OFFSET 1.12 -0.06 0
												CHANNELS 3 Zrotation Xrotation Yrotation 
												End Site
												{
													OFFSET 0.71 -0.05 0
												}
											}
										}
									}
								}
							}
						}
					}
				}
			}
		}
	}
}
MOTION
Frames: 5
Frame Time: 0.0333333
31.4272 17.5874 15.1179 359.6618 -5.4105 5.9625 36.087 -66.9131 25.6563 179.9998 -279.1725 180.0002 75.2979 -2.9654 55.1096 0.0001 -272.5033 -0.0001 357.0753 -347.9099 359.1131 359.2584 -356.9791 359.62 358.7862 -355.0498 359.3008 359.3684 -357.8544 1.4039 135.4109 -273.6384 227.3211 354.2719 -351.0923 16.2323 69.71 -34.1932 72.3714 157.5542 -323.5892 295.9308 250.1466 -288.6129 135.7775 350.7836 -341.3791 116.9379 359.7679 -18.1442 89.2548 0 0 0 120.362 -346.982 352.4828 295.0391 0 0 0 0 0 36.8674 0 0 36.8674 0 0 0 0 0 14.6266 -3.8709 345.497 15.1193 0 0 0 0 0 119.7701 -22.0365 12.1129 117.4031 0 0 4.4059 -1.3466 354.0117 278.9936 -22.565 327.5142 310.4356 -13.5565 325.8804 241.1297 -37.3491 27.8205 334.3425 -332.4119 316.047 356.3357 -2.8218 37.5502 0 0 0 256.3032 -345.4081 3.5135 279.6278 0 0 0 0 0 321.5124 0 0 321.5124 0 0 0 0 0 302.9586 -12.6709 8.0945 302.0583 0 0 0 0 0 4.784 -357.7729 24.907 5.2758 0 0 
31.4362 17.5865 15.1309 359.6622 -5.42 5.9674 36.0268 -66.89 25.6141 180 -279.2173 180 75.2853 -2.9245 55.082 0.0001 -272.5005 -0.0001 357.0979 -347.9173 359.1042 359.2639 -356.981 359.619 358.7952 -355.0528 359.2997 359.3676 -357.8534 1.404 135.4789 -273.61 227.2214 354.2476 -351.0901 16.2107 69.7068 -34.1735 72.3592 157.5662 -323.5983 295.9268 250.1662 -288.61 135.7502 350.7847 -341.3817 116.9382 359.7684 -18.147 89.2563 0 0 0 120.3715 -346.9832 352.4807 295.0412 0 0 0 0 0 36.8644 0 0 36.8644 0 0 0 0 0 14.6273 -3.871 345.497 15.1201 0 0 0 0 0 119.7671 -22.0371 12.1118 117.4002 0 0 4.4302 -1.4866 353.9636 278.9318 -23.1673 327.4056 308.7181 -13.5197 322.7542 242.3239 -37.8762 26.4704 333.8803 -332.1057 316.344 355.9443 -3.1454 37.7347 0 0 0 254.1392 -345.5467 4.0562 279.8764 0 0 0 0 0 315.532 0 0 315.532 0 0 0 0 0 303.1943 -12.6381 8.1461 302.2907 0 0 0 0 0 7.2179 -356.6469 24.7885 7.955 0 0 
31.4362 17.5865 15.1309 359.6622 -5.42 5.9674 36.0268 -66.89 25.6141 180 -279.2173 180 75.2853 -2.9245 55.082 0.0001 -272.5005 -0.0001 357.0979 -347.9173 359.1042 359.2639 -356.981 359.619 358.7952 -355.0528 359.2997 359.3676 -357.8534 1.404 135.4789 -273.61 227.2214 354.2476 -351.0901 16.2107 69.7068 -34.1735 72.3592 157.5662 -323.5983 295.9268 250.1662 -288.61 135.7502 350.7847 -341.3817 116.9382 359.7684 -18.147 89.2563 0 0 0 120.3715 -346.9832 352.4807 295.0412 0 0 0 0 0 36.8644 0 0 36.8644 0 0 0 0 0 14.6273 -3.871 345.497 15.1201 0 0 0 0 0 119.7671 -22.0371 12.1118 117.4002 0 0 4.4302 -1.4866 353.9636 278.9318 -23.1673 327.4056 308.7181 -13.5197 322.7542 242.3239 -37.8762 26.4704 333.8803 -332.1057 316.344 355.9443 -3.1454 37.7347 0 0 0 254.1392 -345.5467 4.0562 279.8764 0 0 0 0 0 315.532 0 0 315.532 0 0 0 0 0 303.1943 -12.6381 8.1461 302.2907 0 0 0 0 0 7.2179 -356.6469 24.7885 7.955 0 0 
31.4232 17.5909 15.1469 359.6734 -5.429 5.9579 36.0483 -66.8367 25.5944 180 -279.2306 180 75.2716 -2.8652 55.0461 0 -272.5838 0 357.09 -347.9118 359.1113 359.262 -356.9795 359.6203 358.7921 -355.0504 359.3017 359.3656 -357.8503 1.4043 135.0536 -273.5241 227.5903 354.2039 -351.1109 16.2268 69.8191 -34.1831 72.3848 157.557 -323.6545 295.892 250.1741 -288.6194 135.7329 350.7868 -341.3835 116.9349 359.7665 -18.1495 89.2504 0 0 0 120.3786 -346.9841 352.4791 295.0411 0 0 0 0 0 36.8653 0 0 36.8653 0 0 0 0 0 14.6346 -3.8729 345.4975 15.1276 0 0 0 0 0 119.7685 -22.0368 12.1123 117.4016 0 0 4.4791 -1.5453 353.8821 278.952 -23.7521 327.1624 311.0707 -13.8711 323.5967 242.7395 -36.8885 25.9669 335.8661 -332.8761 314.5003 357.2848 -1.9381 35.4933 0 0 0 246.7253 -346.1719 5.8699 281.9734 0 0 0 0 0 314.7402 0 0 314.7402 0 0 0 0 0 302.0737 -12.7922 7.8995 301.1868 0 0 0 0 0 8.0068 -356.2837 24.7398 8.8221 0 0 
31.4232 17.5909 15.1469 359.6734 -5.429 5.9579 36.0483 -66.8367 25.5944 180 -279.2306 180 75.2716 -2.8652 55.0461 0 -272.5838 0 357.09 -347.9118 359.1113 359.262 -356.9795 359.6203 358.7921 -355.0504 359.3017 359.3656 -357.8503 1.4043 135.0536 -273.5241 227.5903 354.2039 -351.1109 16.2268 69.8191 -34.1831 72.3848 157.557 -323.6545 295.892 250.1741 -288.6194 135.7329 350.7868 -341.3835 116.9349 359.7665 -18.1495 89.2504 0 0 0 120.3786 -346.9841 352.4791 295.0411 0 0 0 0 0 36.8653 0 0 36.8653 0 0 0 0 0 14.6346 -3.8729 345.4975 15.1276 0 0 0 0 0 119.7685 -22.0368 12.1123 117.4016 0 0 4.4791 -1.5453 353.8821 278.952 -23.7521 327.1624 311.0707 -13.8711 323.5967 242.7395 -36.8885 25.9669 335.8661 -332.8761 314.5003 357.2848 -1.9381 35.4933 0 0 0 246.7253 -346.1719 5.8699 281.9734 0 0 0 0 0 314.7402 0 0 314.7402 0 0 0 0 0 302.0737 -12.7922 7.8995 301.1868 0 0 0 0 0 8.0068 -356.2837 24.7398 8.8221 0 0 
